<svg xmlns="http://www.w3.org/2000/svg" id="mdi-bitcoin" viewBox="0 0 24 24">
    <path d="
    M14.24 10.56
    C13.93 11.8 12 11.17 11.4 11
    L11.95 8.82
    C12.57 9 14.56 9.26 14.24 10.56
    M11.13 12.12
    L10.53 14.53
    C11.27 14.72 13.56 15.45 13.9 14.09
    C14.26 12.67 11.87 12.3 11.13 12.12
    M21.7 14.42
    C20.36 19.78 14.94 23.04 9.58 21.7
    C4.22 20.36 .963 14.94 2.3 9.58
    C3.64 4.22 9.06 .964 14.42 2.3
    C19.77 3.64 23.03 9.06 21.7 14.42
    M14.21 8.05
    L14.66 6.25
    L13.56 6
    L13.12 7.73
    C12.83 7.66 12.54 7.59 12.24 7.53
    L12.68 5.76
    L11.59 5.5
    L11.14 7.29
    C10.9 7.23 10.66 7.18 10.44 7.12
    L10.44 7.12
    L8.93 6.74
    L8.63 7.91
    C8.63 7.91 9.45 8.1 9.43 8.11
    C9.88 8.22 9.96 8.5 9.94 8.75
    L8.71 13.68
    C8.66 13.82 8.5 14 8.21 13.95
    C8.22 13.96 7.41 13.75 7.41 13.75
    L6.87 15
    L8.29 15.36
    C8.56 15.43 8.82 15.5 9.08 15.56
    L8.62 17.38
    L9.72 17.66
    L10.17 15.85
    C10.47 15.93 10.76 16 11.04 16.08
    L10.59 17.87
    L11.69 18.15
    L12.15 16.33
    C14 16.68 15.42 16.54 16 14.85
    C16.5 13.5 16 12.7 15 12.19
    C15.72 12 16.26 11.55 16.41 10.57
    C16.61 9.24 15.59 8.53 14.21 8.05Z"
            fill="#AFB1B3"/>
</svg>